<?xml version="1.0" standalone="no"?><!DOCTYPE svg PUBLIC "-//W3C//DTD SVG 1.1//EN" "http://www.w3.org/Graphics/SVG/1.1/DTD/svg11.dtd"><svg t="1691673333454" class="icon" viewBox="0 0 1024 1024" version="1.1" xmlns="http://www.w3.org/2000/svg" p-id="5248" xmlns:xlink="http://www.w3.org/1999/xlink" width="200" height="200"><path d="M891.5968 340.5824L449.3312 194.2528v760.0128h379.7504c57.2928 0 103.68-46.08 103.68-102.912V397.2608c0-25.7536-16.5888-48.5376-41.1648-56.6784z" fill="#402AD2" p-id="5249"></path><path d="M857.1392 376.9856L444.2624 239.36v714.8544h354.5088c53.4528 0 96.8192-43.3664 96.8192-96.8192V430.2848c0-24.1664-15.5136-45.6192-38.4512-53.2992z" fill="#534FFF" p-id="5250"></path><path d="M144.896 160.7168l366.4384-95.5904c38.5536-10.0352 76.288 18.5344 76.288 57.8048v831.3344H204.3904c-57.8048 0-104.6528-46.1312-104.6528-103.0144V218.5216c-0.0512-27.136 18.5344-50.8416 45.1584-57.8048z" fill="#0081C9" p-id="5251"></path><path d="M141.5168 208.5888l338.944-89.8048c35.6352-9.4208 70.5536 17.408 70.5536 54.3232v781.1584H196.5056c-53.4528 0-96.8192-43.3664-96.8192-96.8192V262.912c0-25.4976 17.152-47.7696 41.8304-54.3232z" fill="#249CFF" p-id="5252"></path><path d="M405.7088 462.8992H251.4432c-22.272 0-40.2944-22.1184-40.2944-49.4592 0-27.2896 18.0224-49.4592 40.2944-49.4592h154.2656c22.272 0 40.2944 22.1184 40.2944 49.4592 0 27.2896-18.0224 49.4592-40.2944 49.4592zM405.7088 752.0768H251.4432c-22.272 0-40.2944-22.1184-40.2944-49.4592 0-27.2896 18.0224-49.4592 40.2944-49.4592h154.2656c22.272 0 40.2944 22.1184 40.2944 49.4592s-18.0224 49.4592-40.2944 49.4592z" fill="#0081C9" p-id="5253"></path><path d="M786.432 619.0592h-126.6176c-18.9952 0-39.424-22.272-39.424-49.7664s15.4112-49.7664 34.4064-49.7664h131.6864c18.9952 0 34.4064 22.272 34.4064 49.7664s-15.5136 49.7664-34.4576 49.7664zM786.432 805.632h-126.6176c-18.9952 0-39.424-22.272-39.424-49.7664s15.4112-49.7664 34.4064-49.7664h131.6864c18.9952 0 34.4064 22.272 34.4064 49.7664s-15.5136 49.7664-34.4576 49.7664z" fill="#402AD2" p-id="5254"></path><path d="M405.7088 433.9712H251.4432c-22.272 0-40.2944-18.0224-40.2944-40.2944s18.0224-40.2944 40.2944-40.2944h154.2656c22.272 0 40.2944 18.0224 40.2944 40.2944 0 22.2208-18.0224 40.2944-40.2944 40.2944zM405.7088 719.4112H251.4432c-22.272 0-40.2944-18.0224-40.2944-40.2944s18.0224-40.2944 40.2944-40.2944h154.2656c22.272 0 40.2944 18.0224 40.2944 40.2944s-18.0224 40.2944-40.2944 40.2944z" fill="#F6E937" p-id="5255"></path><path d="M780.4928 593.408H663.04c-22.272 0-40.2944-18.0224-40.2944-40.2944s18.0224-40.2944 40.2944-40.2944h117.4528c22.272 0 40.2944 18.0224 40.2944 40.2944s-18.0224 40.2944-40.2944 40.2944zM780.4928 777.2672H663.04c-22.272 0-40.2944-18.0224-40.2944-40.2944s18.0224-40.2944 40.2944-40.2944h117.4528c22.272 0 40.2944 18.0224 40.2944 40.2944s-18.0224 40.2944-40.2944 40.2944z" fill="#FFFFFF" p-id="5256"></path></svg>